<svg id="레이어_1" data-name="레이어 1" xmlns="http://www.w3.org/2000/svg" viewBox="0 0 382 297"><defs><style>.cls-1,.cls-3{fill:#fff;}.cls-1,.cls-2,.cls-3,.cls-4{stroke:#000;stroke-width:6px;}.cls-1,.cls-4{stroke-miterlimit:10;}.cls-2{fill:#18a8a4;}.cls-2,.cls-3{stroke-linecap:round;stroke-linejoin:round;}.cls-4{fill:none;}</style></defs><path class="cls-1" d="M281.32,112.48S270.91,27.67,346.72,7.93C346.72,7.93,352.3,94.61,281.32,112.48Z"/><path class="cls-2" d="M250.26,143.94s82.6-35.78,127.18,28.64C377.44,172.58,291.41,204.46,250.26,143.94Z"/><path class="cls-2" d="M244.71,136.67s57.36-69.38,7.9-130.13C252.61,6.54,198,80.29,244.71,136.67Z"/><path class="cls-3" d="M179.09,189.46s85.85-27.1,123.57,41.55C302.66,231,213.81,253.89,179.09,189.46Z"/><path class="cls-2" d="M174.32,181.66S238.5,118.54,195.55,53C195.55,53,133.69,120.78,174.32,181.66Z"/><path class="cls-2" d="M86.09,221.37s89.82-6,110.21,69.64C196.3,291,104.56,292.19,86.09,221.37Z"/><path class="cls-3" d="M83.3,212.65s77.31-46.12,51.09-119.94C134.39,92.71,58.24,143.89,83.3,212.65Z"/><path class="cls-4" d="M5.9,199.33s78.13,78,277-86.79"/></svg>