<svg id="레이어_1" data-name="레이어 1" xmlns="http://www.w3.org/2000/svg" viewBox="0 0 347 292"><defs><style>.cls-1,.cls-2{fill:#fff;}.cls-1,.cls-2,.cls-3,.cls-4{stroke:#000;stroke-width:4px;}.cls-1,.cls-3,.cls-4{stroke-miterlimit:10;}.cls-2{stroke-linecap:round;stroke-linejoin:round;}.cls-3{fill:none;}.cls-4{fill:#18a8a4;}</style></defs><path class="cls-1" d="M228,203.19S219.5,134.38,281,118.36C281,118.36,285.54,188.69,228,203.19Z"/><path class="cls-2" d="M209.32,223.6s61.17-39.92,105.63,5.5C315,229.1,250.51,266.37,209.32,223.6Z"/><path class="cls-2" d="M203.89,218.54s36.38-63.33-11.49-105.15C192.4,113.39,158.85,179.84,203.89,218.54Z"/><path class="cls-3" d="M4.48,273.65s63.39,63.28,224.78-70.41"/><path class="cls-1" d="M273.73,4.07s3.54,41,30.89,41c0,0-30.35,1.11-30.35,40.24,0,0-4.1-41.82-31.53-41.82C242.74,43.45,273.73,37.67,273.73,4.07Z"/><circle class="cls-4" cx="332.99" cy="80.81" r="8.46"/></svg>