<svg id="레이어_1" data-name="레이어 1" xmlns="http://www.w3.org/2000/svg" viewBox="0 0 268 207"><defs><style>.cls-1,.cls-2{fill:#fff;}.cls-1,.cls-2,.cls-3{stroke:#000;stroke-width:4px;}.cls-1,.cls-3{stroke-miterlimit:10;}.cls-2{stroke-linecap:round;stroke-linejoin:round;}.cls-3{fill:none;}</style></defs><path class="cls-1" d="M72.13,78.81S79.39,19.7,26.55,5.93C26.55,5.93,22.66,66.36,72.13,78.81Z"/><path class="cls-2" d="M93.79,100.74S36.21,75.8,5.13,120.7C5.13,120.7,65.1,142.93,93.79,100.74Z"/><path class="cls-2" d="M97.66,95.67S57.67,47.31,92.15,5C92.15,5,130.19,56.37,97.66,95.67Z"/><path class="cls-2" d="M143.4,132.47s-59.84-18.89-86.14,29C57.26,161.44,119.19,177.38,143.4,132.47Z"/><path class="cls-2" d="M146.72,127S102,83,131.93,37.37C131.93,37.37,175.05,84.6,146.72,127Z"/><path class="cls-2" d="M208.23,154.71s-62.61-4.18-76.83,48.54C131.4,203.25,195.35,204.08,208.23,154.71Z"/><path class="cls-2" d="M210.17,148.64S156.28,116.49,174.56,65C174.56,65,227.64,100.7,210.17,148.64Z"/><path class="cls-3" d="M264.13,139.35S209.66,193.72,71,78.86"/></svg>