<svg id="레이어_1" data-name="레이어 1" xmlns="http://www.w3.org/2000/svg" viewBox="0 0 313 328"><defs><style>.cls-1{fill:#18a8a4;}.cls-1,.cls-2,.cls-3,.cls-4{stroke:#000;stroke-width:4px;}.cls-1,.cls-2,.cls-4{stroke-miterlimit:10;}.cls-2,.cls-3{fill:#fff;}.cls-3{stroke-linecap:round;stroke-linejoin:round;}.cls-4{fill:none;}</style></defs><circle class="cls-1" cx="71.08" cy="36.54" r="31.08"/><path class="cls-2" d="M229.49,173.64S221,104.83,282.55,88.81C282.55,88.81,287.07,159.14,229.49,173.64Z"/><path class="cls-3" d="M204.28,199.16s67-29,103.19,23.24C307.47,222.4,237.67,248.27,204.28,199.16Z"/><path class="cls-3" d="M199.78,193.26S246.32,137,206.19,87.68C206.19,87.68,161.91,147.52,199.78,193.26Z"/><path class="cls-3" d="M146.54,236.09s69.65-22,100.26,33.72C246.8,269.81,174.71,288.37,146.54,236.09Z"/><path class="cls-3" d="M142.67,229.76s52.08-51.21,17.22-104.36C159.89,125.4,109.7,180.37,142.67,229.76Z"/><path class="cls-3" d="M71.08,262s72.88-4.86,89.42,56.5C160.5,318.48,86.07,319.44,71.08,262Z"/><path class="cls-3" d="M68.82,254.91s62.72-37.42,41.45-97.31C110.27,157.6,48.49,199.12,68.82,254.91Z"/><path class="cls-4" d="M6,244.1s63.39,63.28,224.78-70.41"/></svg>