<svg id="레이어_1" data-name="레이어 1" xmlns="http://www.w3.org/2000/svg" viewBox="0 0 278 280"><defs><style>.cls-1{fill:#fcca3a;}.cls-2{fill:#18a8a4;}.cls-3,.cls-4,.cls-6{fill:none;stroke:#000;stroke-width:4px;}.cls-3{stroke-linejoin:round;}.cls-4{stroke-linecap:round;}.cls-4,.cls-6{stroke-miterlimit:10;}.cls-5{fill:#f9d153;}</style></defs><ellipse class="cls-1" cx="139.48" cy="255.31" rx="133.57" ry="19.93"/><path class="cls-2" d="M105.26,100.79c-7.35-10.05-9-18.88-12.07-27.72-4.19-12-8.71-22.42-6.9-31.62,2.28-11.69,11.72-18.9,19.81-25C115,9.75,125.32,3.26,135.78,5c9.94,1.65,17.18,10.48,23.38,21.27,4.45,7.75,11,17,11.34,30.13.21,9.28-3.7,21.82-6.34,34,8.37-9.46,16.34-19.77,24.07-24.32,11.16-6.57,22.23-4.81,31.34-3.49,10.9,1.57,21.89,4.59,28.54,13.1,6.51,8.35,7.08,20.32,8.16,30.84,1.13,11,2.49,23-3.87,31.41-5.7,7.52-16.55,9.75-29.44,11.24-8.75,1-17.41,3.35-29.89.17,10.56,5.86,15.5,12.45,21.41,19.09,8.11,9.1,15.69,17.05,16.73,26.08,1.26,11-5.57,20.3-11.65,28.3-6.28,8.28-13.67,17.3-24.08,18.94-9.4,1.47-18.89-4.11-28.72-10.77-7.28-4.94-17.15-9.81-23.33-20.44-4.54-7.8-6.93-20.29-10.35-31.65-2.11,11.43-3.19,23.9-6.72,32-4.86,11.14-14,17-20.38,22.54-9,7.84-17.91,14.1-26.95,13-10.11-1.21-17.13-10.25-22.43-19.39-4.57-7.91-10.09-17.55-7.54-29,1.9-8.48,9.74-15.94,17.16-25.29,5.52-7,9.4-14.37,18.63-21.36-12.18,1.18-20.67-1.92-29.72-3.21-12.72-1.82-23.93-2.17-31.05-7.36-10-7.27-11.61-18.72-12.19-28.43-.62-10.52.39-22.4,8.52-29.8C27.55,76.17,38.87,75.56,51,76c9,.29,20.22-.7,31.24,5.37C90.35,85.77,96.41,92.44,105.26,100.79Z"/><path class="cls-3" d="M105.26,100.79c-7.35-10.05-9-18.88-12.07-27.72-4.19-12-8.71-22.42-6.9-31.62,2.28-11.69,11.72-18.9,19.81-25C115,9.75,125.32,3.26,135.78,5c9.94,1.65,17.18,10.48,23.38,21.27,4.45,7.75,11,17,11.34,30.13.21,9.28-3.7,21.82-6.34,34,8.37-9.46,16.34-19.77,24.07-24.32,11.16-6.57,22.23-4.81,31.34-3.49,10.9,1.57,21.89,4.59,28.54,13.1,6.51,8.35,7.08,20.32,8.16,30.84,1.13,11,2.49,23-3.87,31.41-5.7,7.52-16.55,9.75-29.44,11.24-8.75,1-17.41,3.35-29.89.17,10.56,5.86,15.5,12.45,21.41,19.09,8.11,9.1,15.69,17.05,16.73,26.08,1.26,11-5.57,20.3-11.65,28.3-6.28,8.28-13.67,17.3-24.08,18.94-9.4,1.47-18.89-4.11-28.72-10.77-7.28-4.94-17.15-9.81-23.33-20.44-4.54-7.8-6.93-20.29-10.35-31.65-2.11,11.43-3.19,23.9-6.72,32-4.86,11.14-14,17-20.38,22.54-9,7.84-17.91,14.1-26.95,13-10.11-1.21-17.13-10.25-22.43-19.39-4.57-7.91-10.09-17.55-7.54-29,1.9-8.48,9.74-15.94,17.16-25.29,5.52-7,9.4-14.37,18.63-21.36-12.18,1.18-20.67-1.92-29.72-3.21-12.72-1.82-23.93-2.17-31.05-7.36-10-7.27-11.61-18.72-12.19-28.43-.62-10.52.39-22.4,8.52-29.8C27.55,76.17,38.87,75.56,51,76c9,.29,20.22-.7,31.24,5.37C90.35,85.77,96.41,92.44,105.26,100.79Z"/><path d="M117.09,42.86c-.74,2.72-3.25,4.57-5.69,4.13a5.07,5.07,0,0,1,2.13-9.91A4.44,4.44,0,0,1,117.09,42.86Z"/><path d="M141.78,38.79a5.45,5.45,0,0,1-5.91,4.06c-2.59-.48-4.37-3.35-3.9-6.34a4.7,4.7,0,0,1,6.12-3.76A4.92,4.92,0,0,1,141.78,38.79Z"/><path class="cls-4" d="M115.56,54.88c3.86,3,3.09,4.77,8.23,5.44,2.87.37,5.75-1.82,9-3.83,2.29-1.41,5.94-2.28,8-5.68"/><path class="cls-5" d="M167.42,139.16a29.53,29.53,0,0,1-36.29,23A30.28,30.28,0,1,1,144.3,103a30.89,30.89,0,0,1,23.12,36.12Z"/><path class="cls-6" d="M167.42,139.16a29.53,29.53,0,0,1-36.29,23A30.28,30.28,0,1,1,144.3,103a30.89,30.89,0,0,1,23.12,36.12Z"/></svg>