<svg id="레이어_1" data-name="레이어 1" xmlns="http://www.w3.org/2000/svg" viewBox="0 0 382 297"><defs><style>.cls-1,.cls-2{fill:#18a8a4;}.cls-1,.cls-2,.cls-3,.cls-4{stroke:#000;stroke-width:6px;}.cls-1,.cls-4{stroke-miterlimit:10;}.cls-2,.cls-3{stroke-linecap:round;stroke-linejoin:round;}.cls-3{fill:#fff;}.cls-4{fill:none;}</style></defs><path class="cls-1" d="M101.26,113s10.41-84.8-65.4-104.55C35.86,8.49,30.28,95.18,101.26,113Z"/><path class="cls-2" d="M132.33,144.5S49.72,108.73,5.14,173.14C5.14,173.14,91.17,205,132.33,144.5Z"/><path class="cls-3" d="M137.87,137.23S80.51,67.85,130,7.1C130,7.1,184.55,80.85,137.87,137.23Z"/><path class="cls-3" d="M203.49,190s-85.84-27.1-123.57,41.56C79.92,231.58,168.77,254.46,203.49,190Z"/><path class="cls-2" d="M208.26,182.22S144.08,119.1,187,53.59C187,53.59,248.9,121.35,208.26,182.22Z"/><path class="cls-2" d="M296.5,221.93s-89.82-6-110.21,69.64C186.29,291.57,278,292.75,296.5,221.93Z"/><path class="cls-3" d="M299.28,213.22S222,167.1,248.19,93.28C248.19,93.28,324.34,144.45,299.28,213.22Z"/><path class="cls-4" d="M376.69,199.9s-78.13,78-277-86.79"/></svg>