<svg id="레이어_1" data-name="레이어 1" xmlns="http://www.w3.org/2000/svg" viewBox="0 0 345 293"><defs><style>.cls-1,.cls-2{fill:#fff;}.cls-1,.cls-2,.cls-3,.cls-4{stroke:#000;stroke-width:4px;}.cls-1,.cls-3,.cls-4{stroke-miterlimit:10;}.cls-2{stroke-linecap:round;stroke-linejoin:round;}.cls-3{fill:none;}.cls-4{fill:#18a8a4;}</style></defs><path class="cls-1" d="M117.82,203.22s8.45-68.8-53.06-84.82C64.76,118.4,60.24,188.73,117.82,203.22Z"/><path class="cls-2" d="M136.45,223.63s-61.16-39.91-105.63,5.51C30.82,229.14,95.26,266.41,136.45,223.63Z"/><path class="cls-2" d="M141.89,218.58s-36.38-63.33,11.48-105.15C153.37,113.43,186.93,179.88,141.89,218.58Z"/><path class="cls-3" d="M341.29,273.69S277.9,337,116.52,203.28"/><path class="cls-1" d="M72,4.11s-3.53,41-30.88,41c0,0,30.34,1.11,30.34,40.24,0,0,4.1-41.82,31.53-41.82C103,43.49,72,37.71,72,4.11Z"/><circle class="cls-4" cx="12.79" cy="80.85" r="8.46"/></svg>