<svg id="레이어_1" data-name="레이어 1" xmlns="http://www.w3.org/2000/svg" viewBox="0 0 38 36"><defs><style>.cls-1{fill:#18a8a4;}.cls-2{fill:#f9d153;}</style></defs><path class="cls-1" d="M14,14C8.76,6.8,12.74,3.35,16.67,2.31s8.89.29,6.83,9.77c6-6.8,9.62-2.73,11.3,1.51,1.78,4.46,1.49,10.66-7.27,8.42,7.4,4.11,4.87,8.71,1.28,10.9-3.23,2-7.79,2.68-10.35-5.8-1.63,8.84-6.28,8.52-9.25,6.5S4,27.48,10.88,22.29c-9.5.93-10.32-4.24-8.82-7.8S7.4,7.74,14,14Z"/><path class="cls-2" d="M23.2,20.11A4.27,4.27,0,1,1,20,15,4.27,4.27,0,0,1,23.2,20.11Z"/></svg>